<svg width="33" height="36" viewBox="0 0 33 36" fill="none" xmlns="http://www.w3.org/2000/svg">
    <path d="M6.6666 2.62483C8.94795 12.2736 14.4485 18.5982 23.4303 21.8968L22.636 19.8085C21.9685 18.0527 22.8388 16.0752 24.5794 15.4018C26.32 14.7284 28.2802 15.6064 28.9477 17.3622L32.7753 27.4202C33.4428 29.176 32.5725 31.1535 30.832 31.8269L20.6335 35.7734C18.8929 36.4467 16.9327 35.5688 16.2652 33.8129C16.1131 33.4123 16.037 32.9947 16.037 32.594C16.037 31.2217 16.8651 29.9347 18.2085 29.4062L21.0982 28.2896C9.97033 24.1982 2.90661 16.1178 0.0929473 4.20171C0.0338013 3.93747 9.53435e-07 3.67325 9.53435e-07 3.40901C9.53435e-07 1.86623 1.04774 0.468348 2.59398 0.0933067C4.41061 -0.3414 6.23568 0.783725 6.6666 2.61631V2.62483Z" fill="#515151"/>
</svg>
