<svg width="33" height="36" viewBox="0 0 33 36" fill="none" xmlns="http://www.w3.org/2000/svg">
    <path d="M26.3334 2.62483C24.0521 12.2736 18.5515 18.5982 9.56973 21.8968L10.364 19.8085C11.0315 18.0527 10.1612 16.0752 8.4206 15.4018C6.68002 14.7284 4.71976 15.6064 4.05225 17.3622L0.224663 27.4202C-0.442842 29.176 0.427451 31.1535 2.16803 31.8269L12.3665 35.7734C14.1071 36.4467 16.0673 35.5688 16.7348 33.8129C16.8869 33.4123 16.963 32.9947 16.963 32.594C16.963 31.2217 16.1349 29.9347 14.7915 29.4062L11.9018 28.2896C23.0297 24.1982 30.0934 16.1178 32.9071 4.20171C32.9662 3.93747 33 3.67325 33 3.40901C33 1.86623 31.9523 0.468348 30.406 0.0933067C28.5894 -0.3414 26.7643 0.783725 26.3334 2.61631V2.62483Z" fill="#515151"/>
</svg>
