<svg width="289" height="334" viewBox="0 0 289 334" fill="none" xmlns="http://www.w3.org/2000/svg">
    <path d="M271.233 0H122.673C113.4 0 105.883 7.51714 105.883 16.79V306.53C105.883 315.803 113.4 323.32 122.673 323.32H271.233C280.506 323.32 288.023 315.803 288.023 306.53V16.79C288.023 7.51714 280.506 0 271.233 0Z" fill="#263238"/>
    <path d="M105.923 294.97H288.023V306.8C288.023 315.88 280.653 323.26 271.563 323.26H122.963C113.553 323.26 105.923 315.62 105.923 306.22V294.98V294.97Z" fill="#455A64"/>
    <path d="M122.723 0H271.393C280.573 0 288.033 7.46 288.033 16.64V21.24H105.923V16.81C105.923 7.54 113.453 0.01 122.723 0.01V0Z" fill="#455A64"/>
    <path d="M197.383 16.14C199.775 16.14 201.713 14.2014 201.713 11.81C201.713 9.41859 199.775 7.47998 197.383 7.47998C194.992 7.47998 193.053 9.41859 193.053 11.81C193.053 14.2014 194.992 16.14 197.383 16.14Z" fill="white"/>
    <path d="M257.753 30.52C271.963 30.52 283.483 42.04 283.483 56.25V294.96H112.963V33.49L257.763 30.52H257.753Z" fill="#EBEBEB"/>
    <g opacity="0.3">
        <path d="M108.643 315.44H218.983C237.563 315.44 252.633 300.37 252.633 281.79V59.42C252.633 59.42 253.363 37.49 262.623 32.86L206.323 42.12L210.953 287.04L105.913 306.22C105.913 306.22 106.043 312.32 108.633 315.45L108.643 315.44Z" fill="black"/>
    </g>
    <path d="M78.833 72.7799V310.96H208.403C228.673 310.96 245.113 299.09 245.113 266.34V31.3199H112.943C94.103 31.3199 78.833 49.8799 78.833 72.7799Z" fill="#F5F5F5"/>
    <path d="M78.833 260.76C78.833 260.76 78.813 260.51 78.803 260.04C78.803 259.54 78.793 258.84 78.773 257.91C78.763 256.02 78.743 253.27 78.723 249.73C78.703 242.61 78.673 232.34 78.643 219.65C78.623 194.24 78.593 159.15 78.563 120.41C78.563 110.72 78.563 101.26 78.563 92.12C78.563 87.55 78.563 83.06 78.563 78.67C78.603 74.29 78.423 69.94 79.093 65.76C80.233 57.4 83.553 49.79 88.203 43.91C90.583 41.01 93.193 38.44 96.093 36.5C96.783 35.96 97.573 35.6 98.293 35.15C98.663 34.93 99.033 34.72 99.393 34.51C99.763 34.31 100.163 34.16 100.533 33.98C101.303 33.65 102.053 33.29 102.803 32.99C103.583 32.75 104.353 32.51 105.123 32.27C105.873 32 106.663 31.88 107.423 31.74C108.193 31.62 108.943 31.42 109.703 31.36C111.223 31.29 112.703 31.13 114.133 31.17C116.993 31.17 119.693 31.18 122.213 31.19C127.253 31.21 131.593 31.22 135.153 31.23C138.693 31.25 141.443 31.27 143.333 31.28C144.253 31.29 144.963 31.3 145.463 31.31C145.943 31.31 146.183 31.34 146.183 31.34C146.183 31.34 145.933 31.36 145.463 31.37C144.963 31.37 144.263 31.38 143.333 31.4C141.443 31.41 138.693 31.43 135.153 31.45C131.593 31.46 127.253 31.48 122.213 31.49C119.693 31.49 116.993 31.5 114.133 31.51C112.693 31.47 111.243 31.64 109.743 31.71C108.993 31.77 108.253 31.97 107.493 32.09C106.733 32.23 105.963 32.35 105.223 32.62C104.473 32.86 103.713 33.1 102.943 33.34C102.193 33.64 101.453 34 100.703 34.33C100.333 34.51 99.943 34.65 99.573 34.85C99.213 35.06 98.853 35.27 98.483 35.49C97.773 35.94 96.993 36.3 96.313 36.83C93.453 38.76 90.873 41.3 88.533 44.17C83.943 50 80.673 57.54 79.553 65.82C78.883 69.95 79.073 74.26 79.043 78.66C79.043 83.06 79.043 87.54 79.043 92.11C79.043 101.25 79.043 110.71 79.043 120.4C79.013 159.15 78.983 194.23 78.963 219.64C78.933 232.33 78.903 242.6 78.883 249.72C78.863 253.26 78.843 256.01 78.833 257.9C78.823 258.82 78.813 259.53 78.803 260.03C78.803 260.51 78.773 260.75 78.773 260.75L78.833 260.76Z" fill="#263238"/>
    <path d="M114.913 104.04C123.12 104.04 129.773 97.3869 129.773 89.1799C129.773 80.973 123.12 74.3199 114.913 74.3199C106.706 74.3199 100.053 80.973 100.053 89.1799C100.053 97.3869 106.706 104.04 114.913 104.04Z" fill="#50CDC4"/>
    <path d="M114.043 96.17L106.363 90.23L108.433 87.55L113.583 91.53L120.903 83.11L123.463 85.33L114.043 96.17Z" fill="white"/>
    <path d="M265.293 31.72C254.803 35.33 245.053 43.37 245.083 58.34V83.42H233.673V31.08L260.003 30.59C261.993 30.59 263.063 30.95 265.293 31.73V31.72Z" fill="#F5F5F5"/>
    <path d="M215.743 81.53H141.903V90.2H215.743V81.53Z" fill="#E0E0E0"/>
    <path d="M186.973 100.66H141.903V109.33H186.973V100.66Z" fill="#E0E0E0"/>
    <path d="M114.913 159.68C123.12 159.68 129.773 153.027 129.773 144.82C129.773 136.613 123.12 129.96 114.913 129.96C106.706 129.96 100.053 136.613 100.053 144.82C100.053 153.027 106.706 159.68 114.913 159.68Z" fill="#50CDC4"/>
    <path d="M215.743 137.17H141.903V145.84H215.743V137.17Z" fill="#E0E0E0"/>
    <path d="M186.973 156.29H141.903V164.96H186.973V156.29Z" fill="#E0E0E0"/>
    <path d="M114.913 215.81C106.443 215.81 99.553 208.92 99.553 200.45C99.553 191.98 106.443 185.09 114.913 185.09C123.383 185.09 130.273 191.98 130.273 200.45C130.273 208.92 123.383 215.81 114.913 215.81ZM114.913 186.09C106.993 186.09 100.553 192.53 100.553 200.45C100.553 208.37 106.993 214.81 114.913 214.81C122.833 214.81 129.273 208.37 129.273 200.45C129.273 192.53 122.833 186.09 114.913 186.09Z" fill="#50CDC4"/>
    <path d="M215.743 192.8H141.903V201.47H215.743V192.8Z" fill="#E0E0E0"/>
    <path d="M186.973 211.93H141.903V220.6H186.973V211.93Z" fill="#E0E0E0"/>
    <path d="M114.913 271.45C106.443 271.45 99.553 264.56 99.553 256.09C99.553 247.62 106.443 240.73 114.913 240.73C123.383 240.73 130.273 247.62 130.273 256.09C130.273 264.56 123.383 271.45 114.913 271.45ZM114.913 241.73C106.993 241.73 100.553 248.17 100.553 256.09C100.553 264.01 106.993 270.45 114.913 270.45C122.833 270.45 129.273 264.01 129.273 256.09C129.273 248.17 122.833 241.73 114.913 241.73Z" fill="#50CDC4"/>
    <path d="M215.743 248.44H141.903V257.11H215.743V248.44Z" fill="#E0E0E0"/>
    <path d="M186.973 267.57H141.903V276.24H186.973V267.57Z" fill="#E0E0E0"/>
    <g opacity="0.3">
        <path d="M202.843 270.95H188.013L180.283 286.42C180.283 286.76 200.453 310.97 200.453 310.97H212.163C191.133 303.76 202.843 270.95 202.843 270.95Z" fill="black"/>
    </g>
    <path d="M29.8331 260.76C29.8331 261.93 25.5131 304.74 53.8031 310.97H212.163C212.163 310.97 182.303 300.85 188.983 260.76H29.8331Z" fill="#EBEBEB"/>
    <path d="M114.043 152.36L106.363 146.43L108.433 143.75L113.583 147.73L120.903 139.3L123.463 141.52L114.043 152.36Z" fill="white"/>
    <path d="M208.393 310.97C208.393 310.97 208.663 310.94 209.193 310.91C209.733 310.88 210.513 310.85 211.533 310.8C212.563 310.77 213.823 310.54 215.313 310.38C216.063 310.3 216.843 310.07 217.693 309.91C218.543 309.73 219.443 309.56 220.363 309.23C224.093 308.14 228.573 306.13 232.643 302.35C236.693 298.6 240.263 293.14 242.213 286.43C243.193 283.08 243.973 279.5 244.343 275.71C244.443 274.76 244.533 273.8 244.633 272.84C244.743 271.87 244.713 270.89 244.763 269.9C244.833 267.92 244.893 265.9 244.873 263.84C244.873 255.61 244.853 246.81 244.853 237.55C244.853 219.03 244.843 198.68 244.833 177.32C244.863 134.58 244.883 95.89 244.903 67.88C244.913 64.38 244.873 61.05 244.933 57.89C245.053 54.73 245.583 51.75 246.513 49.11C247.433 46.46 248.743 44.18 250.173 42.27C251.603 40.35 253.143 38.78 254.633 37.5C257.633 34.95 260.413 33.58 262.303 32.79C264.213 32.01 265.273 31.75 265.273 31.75C265.273 31.75 265.023 31.85 264.523 32.03C264.023 32.21 263.283 32.47 262.343 32.89C260.463 33.71 257.723 35.1 254.763 37.66C253.293 38.94 251.773 40.51 250.373 42.42C248.963 44.33 247.683 46.59 246.783 49.21C245.873 51.82 245.363 54.77 245.253 57.91C245.203 61.05 245.253 64.39 245.253 67.89C245.273 95.91 245.303 134.59 245.343 177.33C245.343 198.69 245.333 219.05 245.323 237.56C245.323 246.82 245.303 255.61 245.303 263.85C245.323 265.91 245.253 267.93 245.183 269.92C245.133 270.91 245.163 271.9 245.043 272.87C244.943 273.84 244.843 274.8 244.743 275.76C244.353 279.57 243.553 283.18 242.563 286.55C240.573 293.3 236.953 298.82 232.833 302.58C228.703 306.38 224.163 308.37 220.413 309.44C219.483 309.76 218.573 309.94 217.723 310.11C216.863 310.27 216.083 310.49 215.323 310.56C213.823 310.71 212.553 310.92 211.523 310.94C210.503 310.97 209.723 310.99 209.173 311C208.643 311.01 208.373 311 208.373 311L208.393 310.97Z" fill="#263238"/>
    <path d="M53.8031 310.97C53.8031 310.97 53.4331 310.89 52.7331 310.71C52.3731 310.62 51.9331 310.51 51.4231 310.37C50.9031 310.22 50.3231 309.98 49.6631 309.75C47.0431 308.75 43.2031 306.79 39.6731 302.77C36.1431 298.78 33.1231 292.85 31.4231 285.62C29.6831 278.4 29.0231 269.91 29.6331 260.76V260.55H29.8431C52.3231 260.54 79.6431 260.52 109.083 260.5C138.843 260.52 166.423 260.53 188.983 260.55H189.233L189.193 260.8C187.693 269.74 187.943 278.19 189.893 285.24C191.803 292.32 195.363 297.81 198.893 301.62C202.453 305.46 205.923 307.73 208.333 309.11C209.543 309.79 210.513 310.25 211.163 310.55C211.823 310.84 212.163 310.98 212.163 310.98C212.163 310.98 211.803 310.88 211.133 310.61C210.463 310.34 209.493 309.89 208.263 309.23C205.823 307.89 202.313 305.63 198.703 301.8C195.123 297.99 191.503 292.48 189.543 285.35C187.543 278.25 187.263 269.73 188.753 260.75L188.963 261C166.393 261.01 138.813 261.03 109.063 261.05C79.6231 261.03 52.3031 261.02 29.8231 261L30.0331 260.79C29.4031 269.95 30.0331 278.37 31.7331 285.57C33.4031 292.77 36.3631 298.67 39.8331 302.64C43.3031 306.65 47.0931 308.63 49.6831 309.67C50.3431 309.91 50.9131 310.16 51.4331 310.32C51.9431 310.46 52.3831 310.59 52.7331 310.69C53.4331 310.89 53.7931 311.01 53.7931 311.01L53.8031 310.97Z" fill="#263238"/>
    <path d="M70.3332 151.6C70.3332 151.6 76.9732 179.95 77.2532 197.59C77.5332 215.22 77.8132 243.27 74.1532 274.2C70.4832 305.13 67.3532 318.76 67.3532 318.76L54.3532 316.74C54.3532 316.74 53.9532 298.05 52.6432 282.48C51.1832 265.19 53.9032 258.73 52.2432 239.65C50.5732 220.57 44.1432 208.4 41.3732 202.61C41.3732 202.61 33.6832 193.47 33.1232 180.93C32.5632 168.39 35.5832 151.6 35.5832 151.6H70.3532H70.3332Z" fill="#FFBF9D"/>
    <path d="M50.8932 190.07C50.5832 191.02 46.2232 213.12 42.1932 230.26C38.1632 247.4 35.4932 263.4 31.7032 276.85C26.1332 296.59 21.3232 316.62 21.3232 316.62L7.25317 317.95C8.17317 317.3 7.25317 288.29 12.1632 265.31C17.0432 242.49 18.9832 213.57 18.3632 204.99C17.7432 196.42 17.1332 186.83 19.3032 174.83C21.4732 162.82 25.2232 158.65 25.2232 158.65L42.0532 157.89L50.9032 190.07H50.8932Z" fill="#FFBF9D"/>
    <path d="M14.1631 218.02L44.4031 221.95L45.2331 216.3L46.6131 221.41L78.9531 220.98C78.2831 203.21 77.4931 186.09 75.4031 176.65L17.5131 173.23C17.5131 173.23 15.9231 186.5 15.5031 193.37C14.9631 202.06 14.1731 218.02 14.1731 218.02H14.1631Z" fill="#50CDC4"/>
    <path d="M46.2133 221.16C46.2133 221.16 46.1233 220.6 46.0033 219.6C45.8833 218.6 45.6733 217.15 45.2433 215.41C44.4333 211.91 42.6333 207.21 39.6033 202.62C38.1033 200.31 36.5833 198.16 35.4033 196.06C34.2033 193.97 33.3933 191.93 32.9633 190.16C32.5233 188.38 32.4833 186.89 32.5533 185.87C32.5933 185.36 32.6533 184.97 32.7133 184.71C32.7733 184.45 32.8033 184.31 32.8233 184.32C32.9433 184.32 32.3533 186.59 33.3233 190.07C33.7833 191.8 34.6233 193.78 35.8233 195.83C37.0133 197.89 38.5333 200.03 40.0433 202.35C43.1033 206.98 44.8833 211.78 45.6033 215.34C45.9833 217.12 46.1433 218.58 46.2033 219.6C46.2433 220.11 46.2433 220.5 46.2433 220.77C46.2433 221.04 46.2433 221.18 46.2133 221.18V221.16Z" fill="#263238"/>
    <path d="M54.1431 309.73C54.2831 311.33 54.5031 318.08 53.9731 319.97C53.2631 322.45 52.9531 323.67 52.6831 325.63C52.4131 327.59 52.3831 329.79 53.8231 331.05C55.8831 332.87 58.8731 331.93 61.5031 331.72C68.3931 331.17 72.8331 335.2 79.5131 333.38C80.8931 333.01 82.2431 332.3 83.1331 331.12C84.0331 329.93 84.3931 328.2 83.7731 326.8C82.7331 324.42 79.8031 324.14 77.4031 323.73C72.4431 322.89 71.4331 321.49 68.2131 317.29L69.8831 305.02L54.1431 309.73Z" fill="#FFBF9D"/>
    <path d="M7.91313 306.45C8.05313 308.05 7.51313 318.08 6.98313 319.97C6.27313 322.45 5.96313 323.67 5.69313 325.63C5.42313 327.59 5.39313 329.79 6.83313 331.05C8.89313 332.87 11.8831 331.93 14.5131 331.72C21.4031 331.17 25.8431 335.2 32.5231 333.38C33.9031 333.01 35.2531 332.3 36.1431 331.12C37.0431 329.93 37.4031 328.2 36.7831 326.8C35.7431 324.42 32.8131 324.14 30.4131 323.73C25.4531 322.89 24.4431 321.49 21.2231 317.29L22.8931 305.02L7.91313 306.44V306.45Z" fill="#FFBF9D"/>
    <path d="M29.2529 37.87C32.1629 36.97 35.4329 37.31 38.1029 38.78C39.5829 36.87 42.1429 35.86 44.5329 36.22C46.9229 36.59 49.0529 38.32 49.9029 40.58C52.4429 39.55 55.6529 40.64 57.0429 43.01C58.4329 45.37 57.8329 48.71 55.7029 50.44C57.7829 51.3 59.4129 53.16 60.0129 55.33C60.6129 57.5 60.1529 59.93 58.8029 61.74C61.0229 62.82 61.4129 65.83 61.0829 68.28C60.7529 70.73 60.0529 73.36 61.1429 75.57C61.9929 77.28 63.7429 78.34 64.9429 79.83C66.1429 81.32 66.5629 83.88 64.9429 84.89C67.7029 85.26 69.8429 88.2 69.3329 90.94C68.8329 93.68 65.7829 95.67 63.0729 95.03C63.9729 96.96 63.5829 99.34 62.4029 101.1C61.2129 102.87 59.3229 104.08 57.3229 104.8C51.5629 106.89 44.5629 104.92 40.7429 100.12L22.4629 43.61C23.8329 40.89 26.3429 38.76 29.2529 37.86V37.87Z" fill="#263238"/>
    <path d="M20.563 53.52L20.323 50.47L38.443 45.88C44.063 44.94 50.513 50.24 51.213 55.89C51.993 62.17 52.693 69.87 52.223 74.61C51.293 84.16 44.113 85.8 44.113 85.8L44.633 95.19L23.733 96.71L20.553 53.52H20.563Z" fill="#FFBF9D"/>
    <path d="M48.9931 64.9C49.0531 65.54 48.5631 66.12 47.8931 66.19C47.2331 66.27 46.6431 65.81 46.5731 65.17C46.5131 64.53 47.0031 63.95 47.6631 63.88C48.3331 63.8 48.9231 64.26 48.9831 64.9H48.9931Z" fill="#263238"/>
    <path d="M49.453 60.03C49.313 60.2 48.353 59.57 47.043 59.65C45.743 59.71 44.823 60.44 44.673 60.29C44.603 60.22 44.733 59.93 45.133 59.6C45.523 59.27 46.203 58.94 47.023 58.89C47.833 58.85 48.533 59.1 48.953 59.39C49.373 59.67 49.523 59.95 49.453 60.03Z" fill="#263238"/>
    <path d="M37.5429 65.61C37.6029 66.25 37.1129 66.83 36.4429 66.9C35.7829 66.98 35.1929 66.52 35.1229 65.88C35.0629 65.24 35.5529 64.66 36.2129 64.59C36.8829 64.51 37.4729 64.97 37.5329 65.61H37.5429Z" fill="#263238"/>
    <path d="M36.633 61.05C36.493 61.22 35.533 60.59 34.223 60.67C32.923 60.73 32.003 61.46 31.853 61.31C31.783 61.24 31.913 60.95 32.313 60.62C32.703 60.29 33.383 59.96 34.203 59.91C35.013 59.87 35.713 60.12 36.133 60.41C36.553 60.69 36.703 60.97 36.633 61.05Z" fill="#263238"/>
    <path d="M41.9529 70.44C41.9429 70.37 42.7429 70.18 44.0529 69.93C44.3829 69.88 44.6929 69.7899 44.7429 69.5599C44.8029 69.3099 44.6429 68.9599 44.4629 68.5899C44.1029 67.7999 43.7229 66.98 43.3229 66.11C41.7329 62.58 40.5629 59.67 40.7129 59.61C40.8529 59.55 42.2529 62.36 43.8429 65.89C44.2229 66.76 44.5929 67.59 44.9429 68.39C45.0929 68.76 45.3329 69.18 45.1929 69.69C45.1229 69.94 44.8829 70.14 44.6729 70.21C44.4629 70.29 44.2729 70.3 44.1129 70.32C42.7929 70.47 41.9729 70.5299 41.9629 70.4499L41.9529 70.44Z" fill="#263238"/>
    <path d="M44.1131 85.83C44.1131 85.83 37.4531 86.62 30.9231 83.21C30.9231 83.21 34.5131 89.64 44.2531 88.18L44.1131 85.82V85.83Z" fill="#FF9A6C"/>
    <path d="M36.3331 56.55C36.2031 56.91 34.9031 56.74 33.3631 56.92C31.8231 57.07 30.5931 57.52 30.3831 57.2C30.2931 57.05 30.5031 56.71 31.0031 56.37C31.5031 56.03 32.2931 55.7 33.2131 55.6C34.1331 55.5 34.9731 55.65 35.5331 55.87C36.0931 56.1 36.3831 56.38 36.3231 56.55H36.3331Z" fill="#263238"/>
    <path d="M49.1331 56.8001C48.9231 57.1101 48.0031 56.8701 46.9231 56.9301C45.8431 56.9501 44.9431 57.2701 44.7131 56.9701C44.6131 56.8301 44.7331 56.5201 45.1131 56.2101C45.4831 55.9001 46.1331 55.6301 46.8731 55.6001C47.6131 55.5701 48.2831 55.8001 48.6731 56.0701C49.0731 56.3501 49.2231 56.6401 49.1331 56.8001Z" fill="#263238"/>
    <path d="M41.013 73.61C40.583 72.98 39.793 72.6 38.993 72.65C38.433 72.68 37.863 72.92 37.503 73.36C37.143 73.8 37.043 74.43 37.323 74.88C37.643 75.38 38.363 75.53 38.983 75.39C39.603 75.25 40.153 74.87 40.663 74.5C40.803 74.4 40.953 74.29 41.043 74.14C41.133 73.99 41.163 73.79 41.063 73.66" fill="#FF9A6C"/>
    <path d="M37.893 71.25C38.103 71.25 38.033 72.64 39.173 73.68C40.313 74.73 41.803 74.65 41.803 74.84C41.813 74.93 41.463 75.09 40.833 75.08C40.223 75.08 39.333 74.83 38.633 74.19C37.933 73.55 37.663 72.73 37.643 72.15C37.623 71.57 37.793 71.23 37.883 71.24L37.893 71.25Z" fill="#263238"/>
    <path d="M15.6431 102.57L14.7331 100.96C14.7331 100.96 8.94309 108.14 8.32309 112.68C7.80309 116.44 4.98309 136.8 3.54309 146.39C2.95309 150.3 3.94309 154.36 6.56309 157.41C9.05309 160.31 12.8231 162.35 17.9231 158.92C21.4231 156.56 30.3931 146.93 30.3931 146.93L15.6431 102.57Z" fill="#FFBF9D"/>
    <path d="M25.2531 147.84L0.163086 143.81C0.163086 143.81 5.21309 116.59 6.85309 113.29C8.49309 109.99 11.6931 105.21 11.6931 105.21L24.0431 131.65L25.2531 147.84Z" fill="#E0E0E0"/>
    <path d="M79.0132 188.09C79.0132 188.09 78.0132 178.03 76.0532 166.7C73.6632 152.89 65.7632 129.07 65.7632 129.07L23.2732 148.64L24.0432 157.41C24.0432 157.41 15.0332 174.4 14.2632 188.27C33.5132 194.76 56.4032 193.61 79.0132 188.09Z" fill="#E0E0E0"/>
    <path d="M11.8731 99.21L47.4831 93.52C47.4831 93.52 57.3731 109.57 61.0731 126.44C64.7731 143.31 66.2231 155.35 66.2231 155.35L37.3031 159.74C33.8831 160.13 29.2131 164.24 25.8031 163.77L22.3731 163.29L25.1931 152.58C20.4931 141.76 17.0631 132.51 15.0231 124.87C10.6031 108.3 11.8831 99.22 11.8831 99.22L11.8731 99.21Z" fill="#E0E0E0"/>
    <path d="M96.4531 104.73C96.3431 105.03 82.4931 123.99 82.4931 123.99C82.4931 123.99 69.5831 110.58 65.6531 105.64L58.9331 127.22C58.9331 127.22 72.2431 140.52 78.1431 142.73C84.0431 144.95 88.6231 141.55 91.1331 139.14C93.6431 136.72 104.363 112.04 104.363 112.04L96.4631 104.73H96.4531Z" fill="#FFBF9D"/>
    <path d="M44.1331 94.06C44.1331 94.06 49.6931 90.9 55.3431 94.25C60.9931 97.6 83.0031 120.09 83.0031 120.09L69.1231 137.84L47.7031 117.09L46.3531 104.61L44.1331 94.06Z" fill="#E0E0E0"/>
    <path d="M82.8431 132.69C82.9631 132.69 83.0331 130.83 82.9931 128.53C82.9531 126.23 82.8331 124.37 82.7131 124.38C82.5931 124.38 82.5231 126.24 82.5631 128.54C82.6031 130.84 82.7231 132.7 82.8431 132.69Z" fill="#FF9A6C"/>
    <g opacity="0.3">
        <path d="M62.4431 131.37C58.7831 130.87 55.2631 130.13 52.8231 127.56C50.3931 124.99 48.9931 121.6 48.9531 118.19C53.8731 122.61 58.2131 127.38 62.4431 131.38V131.37Z" fill="black"/>
    </g>
    <path d="M83.0031 120.09C83.0031 120.09 82.9331 120.23 82.7731 120.47C82.5731 120.75 82.3331 121.09 82.0331 121.5C81.3331 122.44 80.3931 123.72 79.2331 125.28C76.7731 128.52 73.4131 132.96 69.6131 137.98L69.4331 138.22L69.2131 138.01C68.2231 137.06 67.1831 136.07 66.1231 135.07C60.7931 129.94 55.9731 125.3 52.4231 121.88C50.7231 120.21 49.3331 118.85 48.3131 117.84C47.8731 117.39 47.5031 117.02 47.2131 116.73C46.9631 116.47 46.8431 116.33 46.8531 116.32C46.8631 116.31 47.0131 116.43 47.2831 116.66C47.5931 116.94 47.9831 117.29 48.4531 117.71C49.5031 118.69 50.9331 120.02 52.6831 121.64C56.2631 125.03 61.1231 129.64 66.4931 134.73C67.5431 135.74 68.5831 136.73 69.5731 137.68L69.1731 137.71C73.0331 132.73 76.4431 128.33 78.9331 125.11C80.1431 123.58 81.1331 122.33 81.8631 121.41C82.1831 121.02 82.4531 120.69 82.6731 120.43C82.8631 120.21 82.9631 120.1 82.9831 120.11L83.0031 120.09Z" fill="#263238"/>
    <path d="M23.5131 156.65C23.5131 156.65 23.4231 155.9 23.3831 154.57C23.3631 153.14 23.3231 151.27 23.2931 149.07V149.15C22.3431 146.62 21.2031 143.65 19.9831 140.45C18.3331 136.08 16.8731 132.12 15.8431 129.24C15.3631 127.87 14.9631 126.73 14.6431 125.82C14.3731 125.01 14.2331 124.55 14.2731 124.54C14.3031 124.53 14.5031 124.96 14.8331 125.75C15.1931 126.64 15.6431 127.76 16.1831 129.11C17.3031 131.95 18.8231 135.9 20.4731 140.26C21.6631 143.47 22.7731 146.46 23.7231 148.99V149.03L23.7331 149.07C23.6931 151.27 23.6631 153.14 23.6431 154.57C23.6031 155.89 23.5631 156.65 23.5131 156.65Z" fill="#263238"/>
    <path d="M112.733 90.04C112.733 90.04 112.693 87.3 110.123 88.92C107.553 90.53 98.683 99.45 95.953 104.4L91.073 112.27L100.813 120.03L103.593 113.24C103.593 113.24 111.233 108.77 112.273 108.06C113.313 107.34 115.013 103.57 111.443 104.18C111.443 104.18 112.863 100.44 109.293 100.6C109.293 100.6 110.273 97.78 106.823 97.23L112.733 90.04Z" fill="#FFBF9D"/>
    <g opacity="0.3">
        <path d="M13.1632 100.11L35.6632 95.4099C36.4732 97.2799 35.0232 102.45 33.0532 102.97C34.2432 105.07 34.2832 107.78 33.1532 109.91C32.0232 112.04 29.7532 113.52 27.3432 113.71C26.7432 113.76 26.1332 113.73 25.5732 113.93C24.3432 114.37 23.7532 115.73 23.0132 116.81C22.0432 118.23 20.5632 119.36 18.8632 119.69C17.1732 120.02 15.2732 119.47 14.1832 118.14C13.0932 116.81 12.9132 114.98 12.8232 113.27C12.6032 108.88 12.7232 104.48 13.1732 100.11H13.1632Z" fill="black"/>
    </g>
    <path d="M21.2032 29.67C19.0532 27.04 15.6132 27.11 13.4432 27.88C11.2732 28.65 9.64317 30.75 9.44317 33.04C6.45317 31.86 2.67317 33.33 1.26317 36.21C-0.14683 39.1 1.00317 42.98 3.76317 44.62C3.33317 46.95 4.67317 49.48 6.82317 50.46C8.97317 51.44 11.7632 50.75 13.2232 48.88L22.4532 38.4C23.2732 36.25 24.0232 33.11 21.2032 29.66V29.67Z" fill="#263238"/>
    <path d="M24.3431 38.29C23.6931 37.69 22.7331 37.54 21.8631 37.7C20.9931 37.85 20.1931 38.26 19.4131 38.67C19.0431 38.86 18.6631 39.06 18.4031 39.38C18.1431 39.7 18.0331 40.18 18.2431 40.54C17.1031 39.92 15.5531 40.22 14.7131 41.2C13.8731 42.18 13.8531 43.77 14.6431 44.79C15.2931 45.62 16.4331 46 17.4631 45.8L16.2531 46.18C18.8031 46.16 21.3231 45.19 23.2331 43.5C23.9831 42.84 24.6631 42.04 24.9431 41.08C25.2331 40.12 25.0531 38.97 24.3231 38.29H24.3431Z" fill="#50CDC4"/>
    <path d="M50.7931 51.75C50.7931 51.75 50.8931 51.81 51.1131 51.88C51.3331 51.94 51.6631 52 52.1031 51.95C52.9431 51.87 54.2531 51.32 55.0331 49.93C55.4331 49.25 55.5931 48.34 55.4431 47.43C55.2831 46.51 54.8231 45.6 54.1131 44.85C53.4131 44.09 52.4331 43.5 51.3331 43.25C50.2331 42.99 49.0431 43.01 47.9031 43.28C47.2331 43.44 46.5931 43.67 46.0131 43.95L46.3131 44.07C45.4931 42.07 43.9031 40.63 42.2531 39.89C40.5831 39.13 38.8831 39.12 37.5731 39.4C36.2531 39.68 35.2931 40.23 34.7031 40.67C34.4031 40.89 34.1931 41.08 34.0531 41.22C33.9131 41.36 33.8531 41.43 33.8631 41.44C33.8831 41.47 34.1831 41.19 34.7931 40.8C35.4031 40.41 36.3531 39.92 37.6331 39.69C38.9031 39.45 40.5231 39.5 42.0931 40.24C43.6531 40.96 45.1431 42.35 45.9031 44.23L45.9931 44.45L46.2031 44.35C46.7531 44.09 47.3631 43.87 48.0031 43.71C49.0931 43.45 50.2131 43.43 51.2331 43.67C52.2631 43.9 53.1531 44.43 53.8231 45.13C54.4931 45.82 54.9331 46.66 55.0831 47.5C55.2331 48.34 55.1131 49.15 54.7631 49.79C54.0731 51.09 52.8731 51.67 52.0831 51.79C51.2631 51.93 50.8031 51.71 50.8031 51.76L50.7931 51.75Z" fill="#455A64"/>
    <path d="M4.99306 65.31C4.99306 65.31 4.83306 64.91 4.62306 64.17C4.42306 63.43 4.23306 62.3 4.45306 60.93C4.66306 59.58 5.32306 57.97 6.72306 56.75C8.08306 55.54 10.1331 54.72 12.2731 54.94L12.5931 54.97L12.5031 54.66C12.3231 54.04 12.2031 53.36 12.1731 52.67C12.0531 50.27 12.9231 47.99 14.2731 46.42C15.6131 44.82 17.4131 43.99 18.9331 43.63C20.4731 43.27 21.7831 43.37 22.6531 43.51C23.5331 43.67 23.9931 43.85 24.0131 43.81C24.0131 43.8 23.9031 43.74 23.6831 43.65C23.4631 43.55 23.1331 43.45 22.6831 43.34C21.8031 43.14 20.4631 42.98 18.8531 43.32C17.2731 43.65 15.3831 44.48 13.9531 46.15C12.5231 47.78 11.5931 50.16 11.7131 52.68C11.7531 53.41 11.8731 54.12 12.0631 54.77L12.2931 54.49C10.0031 54.26 7.85306 55.14 6.44306 56.44C4.98306 57.74 4.32306 59.46 4.14306 60.87C3.95306 62.3 4.20306 63.46 4.45306 64.2C4.58306 64.57 4.70306 64.85 4.80306 65.03C4.90306 65.21 4.96306 65.3 4.97306 65.3L4.99306 65.31Z" fill="#455A64"/>
    <path d="M51.1731 49.1C49.0431 46.31 45.9431 44.26 42.5431 43.4L27.2331 45.33L25.9331 45.31C25.6431 44.35 24.0231 43.84 24.0231 43.84C22.5831 42.74 17.6031 42.68 14.1231 46.31C12.8731 47.62 11.9831 50.91 11.9531 52.73C11.9431 53.42 12.6731 54.36 12.1031 54.73C11.9031 54.86 10.2431 54.83 10.0131 54.88C6.12307 55.73 3.68307 59.19 4.39307 64.35C4.43307 64.61 4.52307 64.87 4.47307 65.13C4.40307 65.54 4.07307 65.84 3.79307 66.14C1.94307 68.1 1.49307 71.26 2.72307 73.66C3.10307 74.4 3.63307 75.09 3.76307 75.92C4.00307 77.39 2.92307 78.71 2.09307 79.94C-0.406933 83.65 -0.936933 89.04 1.99307 92.41C2.41307 92.89 2.90307 93.35 3.29307 93.86C2.70307 95.78 2.33307 97.75 2.39307 99.77C2.52307 104.13 5.18307 108.73 9.44307 109.67C8.38307 111.7 9.38307 114.43 11.3531 115.59C13.3231 116.75 15.9531 116.45 17.8431 115.17C19.7331 113.88 20.9331 111.75 21.4631 109.53C23.5631 110.56 26.2731 110.18 28.0131 108.62C29.7531 107.06 30.4131 104.4 29.6131 102.2C31.3031 102.85 33.3231 101.78 34.1231 100.15C34.9231 98.52 34.6731 96.54 33.9131 94.89C33.1931 93.33 32.0531 92.02 30.9031 90.74C31.9231 89.45 32.1731 87.5 31.8531 85.82C31.4431 83.63 29.6831 82.47 29.1631 80.66C28.9331 79.86 29.5931 75.83 28.7031 74.29C28.0031 73.08 26.7831 72.21 26.1831 70.94C25.3131 69.09 25.9831 66.92 26.3531 64.91C27.0631 61.11 26.6031 57.1 25.1031 53.54C25.0331 53.01 24.9931 52.58 24.9931 52.4C25.0331 50.08 27.9131 51.32 30.1031 52.06C30.6331 52.24 31.1931 52.34 31.7531 52.36C33.5631 52.41 35.3731 51.55 36.4831 50.12C38.5631 52.33 41.9131 53.25 44.8231 52.4C46.0031 54.05 47.2031 55.72 48.7831 57C50.3531 58.28 52.3731 59.15 54.3931 58.93C54.4531 55.42 53.3031 51.89 51.1631 49.1H51.1731Z" fill="#263238"/>
</svg>
