<svg width="391" height="372" viewBox="0 0 391 372" fill="none" xmlns="http://www.w3.org/2000/svg">
    <path d="M195.609 182.215L245.609 371.215H145.609L195.609 182.215Z" fill="url(#paint0_linear_5937_8995)"/>
    <path d="M195.451 182.553L390.651 193.404L359.75 288.51L195.451 182.553Z" fill="url(#paint1_linear_5937_8995)"/>
    <path d="M195.451 182.293L266.091 1.26362e-05L346.993 58.7785L195.451 182.293Z" fill="url(#paint2_linear_5937_8995)"/>
    <path d="M195.542 182.293L44.0001 58.7786L124.902 3.3617e-05L195.542 182.293Z" fill="url(#paint3_linear_5937_8995)"/>
    <path d="M195.201 182.553L30.902 288.51L0.000336468 193.404L195.201 182.553Z" fill="url(#paint4_linear_5937_8995)"/>
    <defs>
        <linearGradient id="paint0_linear_5937_8995" x1="195.609" y1="182.215" x2="195.609" y2="434.215" gradientUnits="userSpaceOnUse">
            <stop stop-color="#F2EB34"/>
            <stop offset="0.703125" stop-color="#F2EB34" stop-opacity="0"/>
        </linearGradient>
        <linearGradient id="paint1_linear_5937_8995" x1="195.451" y1="182.553" x2="435.117" y2="260.425" gradientUnits="userSpaceOnUse">
            <stop stop-color="#F2EB34"/>
            <stop offset="0.703125" stop-color="#F2EB34" stop-opacity="0"/>
        </linearGradient>
        <linearGradient id="paint2_linear_5937_8995" x1="195.451" y1="182.293" x2="343.572" y2="-21.5788" gradientUnits="userSpaceOnUse">
            <stop stop-color="#F2EB34"/>
            <stop offset="0.703125" stop-color="#F2EB34" stop-opacity="0"/>
        </linearGradient>
        <linearGradient id="paint3_linear_5937_8995" x1="195.542" y1="182.293" x2="47.4205" y2="-21.5788" gradientUnits="userSpaceOnUse">
            <stop stop-color="#F2EB34"/>
            <stop offset="0.703125" stop-color="#F2EB34" stop-opacity="0"/>
        </linearGradient>
        <linearGradient id="paint4_linear_5937_8995" x1="195.201" y1="182.553" x2="-44.4654" y2="260.425" gradientUnits="userSpaceOnUse">
            <stop stop-color="#F2EB34"/>
            <stop offset="0.703125" stop-color="#F2EB34" stop-opacity="0"/>
        </linearGradient>
    </defs>
</svg>
